<svg id="Layer_1" data-name="Layer 1" xmlns="http://www.w3.org/2000/svg" viewBox="0 0 361.32 255.25"><defs><style>.cls-1{fill:#2a499f;}.cls-1,.cls-2,.cls-3{stroke:#231f20;stroke-miterlimit:10;}.cls-2{fill:#2b8e9e;}.cls-3{fill:#27aae1;}.cls-4{fill:#231f20;}</style></defs><title>nespital</title><path class="cls-1" d="M107.67,288s15.53,83.27,93.22,97.15,77.68,83.28,77.68,83.28-28.25-50-85.45-50S107.67,288,107.67,288Z" transform="translate(-107.18 -215.08)"/><path class="cls-1" d="M468,288s-15.49,82-92.92,95.67-77.44,82-77.44,82,28.16-49.2,85.18-49.2S468,288,468,288Z" transform="translate(-107.18 -215.08)"/><path class="cls-2" d="M442.09,288S429.74,337.31,368,345.53s-61.71,49.3-61.71,49.3,22.44-29.58,67.88-29.58S442.09,288,442.09,288Z" transform="translate(-107.18 -215.08)"/><path class="cls-2" d="M134.14,288s12.24,49.31,73.44,57.53,61.2,49.3,61.2,49.3-22.26-29.58-67.32-29.58S134.14,288,134.14,288Z" transform="translate(-107.18 -215.08)"/><path class="cls-1" d="M224.27,253.51" transform="translate(-107.18 -215.08)"/><path class="cls-3" d="M230,327.4c1.92-22.09,7.46-38.2,12.45-49.16,4.63-10.15,11.48-21.82,11.81-38.87a68,68,0,0,0-1.79-16.8c-13.23,5.4-20.58,13.06-24.41,18C211.22,262.33,212.17,296.57,230,327.4Z" transform="translate(-107.18 -215.08)"/><path class="cls-4" d="M249.3,228.42c.23.11-1.65,4.48-4.88,11.44s-7.9,16.5-12.72,27.14c-5.22,10.46-6.17,21.13-6.08,28.7,0,3.81.34,6.89.56,9a13.36,13.36,0,0,1,.21,3.34c-.12,0-.48-1.12-.92-3.24a59.31,59.31,0,0,1-1.16-9.07,63.71,63.71,0,0,1,.68-13.6,54.22,54.22,0,0,1,1.82-7.88,78.91,78.91,0,0,1,3.2-8c4.85-10.71,9.72-20.12,13.23-27S249.07,228.3,249.3,228.42Z" transform="translate(-107.18 -215.08)"/><path class="cls-4" d="M218.33,289.57c-.19-.21.24-.91.39-2.29.1-.69.15-1.53.3-2.53a7,7,0,0,1,1.27-3.31,11.32,11.32,0,0,1,2.63-2.1,4.46,4.46,0,0,0,1.48-1.58c.65-1.1.39-1.92.62-2.06s.36.09.56.54a2.92,2.92,0,0,1,0,2,5,5,0,0,1-.58,1.26,5.18,5.18,0,0,1-1.07,1.18,16.16,16.16,0,0,0-2.23,1.91,6.57,6.57,0,0,0-1,2.49,25.17,25.17,0,0,1-.71,2.53,4.43,4.43,0,0,1-1,1.63C218.68,289.57,218.41,289.65,218.33,289.57Z" transform="translate(-107.18 -215.08)"/><path class="cls-4" d="M235.13,277.45c.09.09.09.28-.11.55a1.51,1.51,0,0,1-1.32.54,4.31,4.31,0,0,1-3.19-2.49c-.66-1.24-1.1-2.28-1.52-2.89s-.82-.84-.82-1.11.16-.25.48-.26a2,2,0,0,1,1.24.41,8.44,8.44,0,0,1,2.24,3,5.18,5.18,0,0,0,1.8,2.09C234.4,277.55,234.94,277.26,235.13,277.45Z" transform="translate(-107.18 -215.08)"/><path class="cls-4" d="M222.05,268.24c0-.14.3-.23.62-.52a3.66,3.66,0,0,0,.92-1.67,11.11,11.11,0,0,0,.31-1.39c.08-.51.11-1.06.19-1.72a12.06,12.06,0,0,1,.38-2.06,5,5,0,0,1,1.21-2.23,3,3,0,0,1,1.31-.78,4.12,4.12,0,0,1,1.31-.1,6.34,6.34,0,0,0,4.46-1.17c1.44-1,2.12-2,2.37-1.84s-.07,1.37-1.53,2.85a7.12,7.12,0,0,1-3.2,1.8,7.25,7.25,0,0,1-2.16.17A1.49,1.49,0,0,0,227,260a3.85,3.85,0,0,0-.77,1.44,13.72,13.72,0,0,0-.43,1.79c-.11.57-.21,1.21-.38,1.79a8.27,8.27,0,0,1-.6,1.57,3.46,3.46,0,0,1-1.79,1.8C222.37,268.55,222,268.34,222.05,268.24Z" transform="translate(-107.18 -215.08)"/><path class="cls-4" d="M246.09,262.42c-.14,0-.29-.16-.55-.37a5.23,5.23,0,0,0-1.3-.71,4.2,4.2,0,0,1-1.13-.7,3.22,3.22,0,0,1-.92-1.44,16.76,16.76,0,0,1-.48-3.14,15.68,15.68,0,0,0-1.49-4.92c-.58-1.2-1.1-1.91-.92-2.11s1,.21,2,1.39a10.66,10.66,0,0,1,2.23,5.4c.15,1.17.11,2.17.28,2.9a1.92,1.92,0,0,0,.37.84,4.8,4.8,0,0,0,.73.67,3.26,3.26,0,0,1,1.23,1.44C246.31,262.14,246.2,262.4,246.09,262.42Z" transform="translate(-107.18 -215.08)"/><path class="cls-4" d="M229.87,247.12c-.08-.28,1-.66,2.48-1.47a5.88,5.88,0,0,0,2-1.84,6.7,6.7,0,0,0,.67-1.49,7,7,0,0,1,1-2,4.58,4.58,0,0,1,2-1.42,10.09,10.09,0,0,1,1.94-.52,9.24,9.24,0,0,0,1.51-.34,4.74,4.74,0,0,0,1.13-.54c1.32-.83,1.48-2,1.77-2,.11,0,.24.3.19.87a3.48,3.48,0,0,1-1.13,2.11,5.18,5.18,0,0,1-1.37.94,9.21,9.21,0,0,1-1.72.59,5,5,0,0,0-2.83,1.43c-.62.72-.85,2.22-1.74,3.33a6.16,6.16,0,0,1-2.85,2.05C231.06,247.44,229.93,247.33,229.87,247.12Z" transform="translate(-107.18 -215.08)"/><path class="cls-4" d="M251.35,255.05c0,.11-.3.23-.81.1a3.35,3.35,0,0,1-1.7-1.29,7.91,7.91,0,0,1-1.27-2.74,23.88,23.88,0,0,1-.55-3.45,19.57,19.57,0,0,0-.53-3.16,5.34,5.34,0,0,0-1.12-2.07c-.88-1-1.82-.66-2-.9-.06-.09.09-.37.61-.56a2,2,0,0,1,1-.06,3.23,3.23,0,0,1,1.19.51A5.46,5.46,0,0,1,248.1,244a13.39,13.39,0,0,1,.76,3.5c.14,1.21.22,2.34.38,3.29a10,10,0,0,0,.71,2.42C250.52,254.48,251.37,254.78,251.35,255.05Z" transform="translate(-107.18 -215.08)"/><path class="cls-4" d="M240.28,269.81c.06.11,0,.31-.33.52a2.15,2.15,0,0,1-1.51.26,5.34,5.34,0,0,1-3.55-3,34.13,34.13,0,0,0-1.69-3.51c-.49-.76-1-1.11-.94-1.37s.89-.32,1.88.46a10.29,10.29,0,0,1,2.42,3.59,6,6,0,0,0,2.25,2.55C239.51,269.73,240.15,269.57,240.28,269.81Z" transform="translate(-107.18 -215.08)"/><path class="cls-4" d="M231.36,300.83c0,.11-.26.18-.65.11a2.77,2.77,0,0,1-1.38-.88c-1-1-1.44-2.82-1.88-4.47-.82-3.23-3.06-5.09-2.76-5.52.13-.2.92,0,1.92.81a8.31,8.31,0,0,1,2.63,4.21,26.18,26.18,0,0,0,1.16,4.21C230.81,300.2,231.44,300.56,231.36,300.83Z" transform="translate(-107.18 -215.08)"/><path class="cls-3" d="M314.91,323.28A219.26,219.26,0,0,0,285,275.59c-7.87-9.46-18.2-20-25.26-37.34a92.84,92.84,0,0,1-5.19-17.43A65.44,65.44,0,0,1,282,234.56C304.59,253.53,317.42,288.55,314.91,323.28Z" transform="translate(-107.18 -215.08)"/><path class="cls-4" d="M259.53,226.18a14.55,14.55,0,0,1,2.67,2.53c1.63,1.7,3.94,4.21,6.77,7.34,5.65,6.27,13.45,14.92,21.68,24.85,2.05,2.49,4,5,5.79,7.47a81.67,81.67,0,0,1,4.59,7.56,91.59,91.59,0,0,1,6,13.67,79.58,79.58,0,0,1,2.69,9.67,13.42,13.42,0,0,1,.52,3.64c-.14,0-.53-1.22-1.22-3.46s-1.71-5.5-3.22-9.4a93.73,93.73,0,0,0-16.54-28c-8.2-9.89-15.85-18.68-21.24-25.17-2.7-3.23-4.86-5.87-6.32-7.73S259.43,226.26,259.53,226.18Z" transform="translate(-107.18 -215.08)"/><path class="cls-4" d="M309.53,282.58c-.12.22-1.21-.22-2.23-1.57-.51-.65-1-1.47-1.57-2.33a11.47,11.47,0,0,0-1.9-2.45,16.17,16.17,0,0,0-2.73-1.64,6.18,6.18,0,0,1-2.23-2.12,3.83,3.83,0,0,1-.68-2c0-.52.15-.78.27-.77s.41.92,1.45,1.94a6.3,6.3,0,0,0,2,1.41,12,12,0,0,1,3.15,1.75,9.89,9.89,0,0,1,2.16,3c.49.95.86,1.79,1.2,2.48C309.05,281.68,309.67,282.35,309.53,282.58Z" transform="translate(-107.18 -215.08)"/><path class="cls-4" d="M290.78,273.41c.07-.1.25-.13.46-.15s.44-.08.51-.23a4.66,4.66,0,0,0,.53-2.31,7.87,7.87,0,0,1,.67-3.36,1.74,1.74,0,0,1,.92-.86c.31-.1.5,0,.53.11s0,.27-.09.46a4.06,4.06,0,0,0-.12.73c-.07.67,0,1.73-.06,3a5.29,5.29,0,0,1-.44,2,2.5,2.5,0,0,1-1.38,1.42,1.31,1.31,0,0,1-1.37-.3C290.74,273.69,290.71,273.52,290.78,273.41Z" transform="translate(-107.18 -215.08)"/><path class="cls-4" d="M298,261.58c.05.09-.29.39-1,.25a4.42,4.42,0,0,1-2.1-1.41,13.71,13.71,0,0,1-2-2.92,14.68,14.68,0,0,0-2.2-3.15,2.13,2.13,0,0,0-.63-.44.9.9,0,0,0-.54-.08c-.21,0-.53.13-.94.22a5.37,5.37,0,0,1-1.18.08,6.84,6.84,0,0,1-3.54-1.29c-1.69-1.22-2.27-2.38-2.11-2.52s1.13.6,2.77,1.39a6.78,6.78,0,0,0,2.9.71,3.25,3.25,0,0,0,.77-.1c.25-.06.58-.2,1.05-.29a2.83,2.83,0,0,1,1.54.17A3.88,3.88,0,0,1,292,253a12.28,12.28,0,0,1,2.45,3.72,20.35,20.35,0,0,0,1.53,2.89,5.88,5.88,0,0,0,1.34,1.56C297.63,261.43,297.92,261.44,298,261.58Z" transform="translate(-107.18 -215.08)"/><path class="cls-4" d="M275.72,260.18c-.12,0-.31-.16-.4-.64a1.91,1.91,0,0,1,.1-.88,5.67,5.67,0,0,1,.44-.93,2,2,0,0,0,.14-1.79c-.2-.79-.6-1.71-.91-2.81a12.21,12.21,0,0,1-.27-5.74c.34-1.48,1-2.23,1.2-2.12s.08.95.11,2.27a20.4,20.4,0,0,0,.75,5.1,26.89,26.89,0,0,1,.8,3,4,4,0,0,1,0,1.62,3,3,0,0,1-.7,1.25,4.18,4.18,0,0,0-.9,1.13C275.91,259.91,275.85,260.16,275.72,260.18Z" transform="translate(-107.18 -215.08)"/><path class="cls-4" d="M283.08,241.55c0,.22-1.14.56-3.07.19a6.77,6.77,0,0,1-3.09-1.6c-1-.88-1.72-2.13-2.55-2.85a4.67,4.67,0,0,0-3-1,6.92,6.92,0,0,1-1.84-.33,5.5,5.5,0,0,1-1.49-.77,4.37,4.37,0,0,1-1.48-1.82c-.2-.52-.19-.83-.08-.88.26-.14.82.89,2.25,1.58a5.21,5.21,0,0,0,1.21.41,7.48,7.48,0,0,0,1.5.1,8.59,8.59,0,0,1,2.05.2,5.18,5.18,0,0,1,2.12,1.12c1.23,1.13,1.75,2.29,2.51,3a6.82,6.82,0,0,0,2.3,1.59C281.94,241.1,283.11,241.27,283.08,241.55Z" transform="translate(-107.18 -215.08)"/><path class="cls-4" d="M268.42,253.66c-.06-.12.11-.31.23-.65a4.1,4.1,0,0,0,.15-1.56,26.24,26.24,0,0,0-1.38-5.66,18.88,18.88,0,0,1-.74-3.4,5.8,5.8,0,0,1,.41-3,2.6,2.6,0,0,1,.81-1.05,1.48,1.48,0,0,1,1-.3c.57.08.74.34.71.44s-.33.14-.63.28-.54.45-.68,1.07c-.33,1.27.19,3.23.88,5.49a29.28,29.28,0,0,1,.83,3.32,9.51,9.51,0,0,1,.08,2.94,3.15,3.15,0,0,1-.89,1.92C268.79,253.81,268.45,253.77,268.42,253.66Z" transform="translate(-107.18 -215.08)"/><path class="cls-4" d="M283.47,266.61c.08-.27.75-.22,1.1-.74a5.22,5.22,0,0,0,.71-2.93,9.7,9.7,0,0,1,.56-3.94,2.32,2.32,0,0,1,.89-1.06c.3-.16.51-.14.58-.05.14.24-.17.67-.21,1.49s0,2.06,0,3.58a4.56,4.56,0,0,1-1.78,4,1.6,1.6,0,0,1-1.51.12C283.53,266.9,283.43,266.72,283.47,266.61Z" transform="translate(-107.18 -215.08)"/><path class="cls-4" d="M303.2,296.49c-.15-.24.25-.72.16-1.69s-.44-2.44-.74-4.22a8.38,8.38,0,0,1,.47-4.77c.51-1.16,1.16-1.65,1.36-1.52s0,.83-.1,1.89a13.16,13.16,0,0,0,.1,4.11,12.54,12.54,0,0,1,.21,4.67,2.42,2.42,0,0,1-.82,1.4C303.51,296.59,303.27,296.59,303.2,296.49Z" transform="translate(-107.18 -215.08)"/><path class="cls-3" d="M349.32,216.71c-3.72,21.95-10.55,37.72-16.42,48.39-5.45,9.89-13.24,21.16-15,38.16a67.55,67.55,0,0,0,.42,16.86c13.64-4.68,21.6-11.94,25.82-16.67C362.74,282.65,364.58,248.43,349.32,216.71Z" transform="translate(-107.18 -215.08)"/><path class="cls-4" d="M322,314.45c-.22-.13,2-4.38,5.77-11.13s9.19-16,14.85-26.3c6.06-10.11,7.95-20.72,8.49-28.34.28-3.82.23-6.94.18-9.1s-.08-3.35.06-3.37.39,1.16.66,3.32a60.94,60.94,0,0,1,.41,9.22,64.63,64.63,0,0,1-1.83,13.59,55.13,55.13,0,0,1-2.48,7.76,85.59,85.59,0,0,1-3.86,7.81c-5.69,10.38-11.3,19.47-15.35,26.08S322.2,314.58,322,314.45Z" transform="translate(-107.18 -215.08)"/><path class="cls-4" d="M357.87,255.09c.17.21-.31.9-.58,2.27-.15.69-.28,1.53-.51,2.52a7.14,7.14,0,0,1-1.53,3.23,11.6,11.6,0,0,1-2.78,1.94,4.74,4.74,0,0,0-1.62,1.5c-.75,1.06-.56,1.9-.79,2s-.35-.12-.52-.59a3,3,0,0,1,.14-2,4.84,4.84,0,0,1,.68-1.22,5.24,5.24,0,0,1,1.15-1.1,16.84,16.84,0,0,0,2.37-1.79,6.57,6.57,0,0,0,1.25-2.44,25.67,25.67,0,0,1,.92-2.48,4.44,4.44,0,0,1,1.11-1.56C357.52,255.07,357.79,255,357.87,255.09Z" transform="translate(-107.18 -215.08)"/><path class="cls-4" d="M340.12,266.28c-.08-.09-.07-.28.13-.54a1.53,1.53,0,0,1,1.33-.48,4.19,4.19,0,0,1,3,2.67c.55,1.28.91,2.34,1.28,3s.75.87.73,1.14c0,.12-.18.24-.5.24a2,2,0,0,1-1.2-.49,8.11,8.11,0,0,1-2-3.09,4.83,4.83,0,0,0-1.62-2.15C340.86,266.23,340.29,266.49,340.12,266.28Z" transform="translate(-107.18 -215.08)"/><path class="cls-4" d="M352.41,276.18c0,.14-.31.2-.65.48a3.83,3.83,0,0,0-1.05,1.63,9.66,9.66,0,0,0-.43,1.37c-.13.51-.2,1.06-.33,1.71a13.55,13.55,0,0,1-.55,2,5.23,5.23,0,0,1-1.38,2.15,3,3,0,0,1-1.35.69,4,4,0,0,1-1.32,0c-.38,0-.66-.08-.94-.09a5.76,5.76,0,0,0-.83,0,7.43,7.43,0,0,0-2.8,1c-1.52.92-2.28,1.86-2.51,1.7s.17-1.37,1.73-2.76a7.3,7.3,0,0,1,3.31-1.63,6.73,6.73,0,0,1,1.11-.11,9.08,9.08,0,0,1,1.09.05,1.5,1.5,0,0,0,1.3-.33,3.85,3.85,0,0,0,.9-1.4,18.3,18.3,0,0,0,.58-1.77,16.9,16.9,0,0,1,.52-1.77,8,8,0,0,1,.73-1.52,3.56,3.56,0,0,1,1.91-1.69C352.11,275.85,352.43,276.07,352.41,276.18Z" transform="translate(-107.18 -215.08)"/><path class="cls-4" d="M328,280.69c.13,0,.27.18.51.41a5,5,0,0,0,1.23.77,4.5,4.5,0,0,1,1.09.78,3.3,3.3,0,0,1,.8,1.51,16.4,16.4,0,0,1,.21,3.14,15.51,15.51,0,0,0,1.08,5c.49,1.23.95,2,.76,2.15s-1-.28-1.91-1.51a10.66,10.66,0,0,1-1.78-5.52c-.05-1.17.07-2.16,0-2.89a1.94,1.94,0,0,0-.29-.85,4,4,0,0,0-.67-.7,3.22,3.22,0,0,1-1.13-1.52C327.71,281,327.84,280.71,328,280.69Z" transform="translate(-107.18 -215.08)"/><path class="cls-4" d="M342.89,296.83c.06.28-1.07.6-2.59,1.34a6.08,6.08,0,0,0-2.14,1.74,6.51,6.51,0,0,0-.8,1.45,7.13,7.13,0,0,1-1.17,1.95,4.85,4.85,0,0,1-2.06,1.31,10.14,10.14,0,0,1-2,.41,10.43,10.43,0,0,0-1.54.26,5.29,5.29,0,0,0-1.18.48c-1.39.76-1.65,1.92-1.93,1.86-.12,0-.22-.33-.12-.89a3.65,3.65,0,0,1,1.28-2,5.61,5.61,0,0,1,1.44-.86,9.46,9.46,0,0,1,1.76-.5,5.17,5.17,0,0,0,3-1.28c.68-.7,1-2.18,2-3.24a6.35,6.35,0,0,1,3-1.87C341.71,296.44,342.85,296.61,342.89,296.83Z" transform="translate(-107.18 -215.08)"/><path class="cls-4" d="M322.1,287.77c0-.11.31-.21.82,0a3.25,3.25,0,0,1,1.6,1.39,7.89,7.89,0,0,1,1,2.82,24.38,24.38,0,0,1,.26,3.46,19.46,19.46,0,0,0,.28,3.17,4.91,4.91,0,0,0,.94,2.11c.8,1.06,1.76.75,1.88,1,.05.1-.11.36-.63.53a2.48,2.48,0,0,1-2.15-.57,5.23,5.23,0,0,1-1.7-2.65,13.61,13.61,0,0,1-.47-3.53c0-1.21,0-2.33-.11-3.29a9.48,9.48,0,0,0-.51-2.44C322.9,288.38,322.07,288,322.1,287.77Z" transform="translate(-107.18 -215.08)"/><path class="cls-4" d="M334.35,273.63c-.05-.11,0-.3.35-.49a2.1,2.1,0,0,1,1.51-.2,5.19,5.19,0,0,1,3.33,3.19,31.79,31.79,0,0,0,1.41,3.58c.42.78.92,1.15.83,1.41s-.91.27-1.84-.57a9.91,9.91,0,0,1-2.12-3.72,5.74,5.74,0,0,0-2-2.65C335.11,273.76,334.47,273.88,334.35,273.63Z" transform="translate(-107.18 -215.08)"/><path class="cls-4" d="M345.79,243.16c0-.12.26-.17.64-.07a2.61,2.61,0,0,1,1.32,1c.89,1.11,1.2,2.89,1.5,4.56.55,3.25,2.64,5.23,2.31,5.64-.14.19-.92-.06-1.85-.93a8.06,8.06,0,0,1-2.28-4.36,25.16,25.16,0,0,0-.81-4.24C346.29,243.81,345.69,243.42,345.79,243.16Z" transform="translate(-107.18 -215.08)"/></svg>